<svg width="2649" height="544" viewBox="0 0 2649 544" fill="none" xmlns="http://www.w3.org/2000/svg">
<path d="M0.6 511V21.4H193.04C224.093 21.4 250.16 27.7466 271.24 40.44C292.32 53.1333 308.187 69.5666 318.84 89.74C329.493 109.687 334.82 130.767 334.82 152.98C334.82 179.953 328.133 203.073 314.76 222.34C301.613 241.607 283.82 254.753 261.38 261.78L260.7 245.12C291.98 252.827 316.007 267.9 332.78 290.34C349.553 312.553 357.94 338.507 357.94 368.2C357.94 396.987 352.16 422.033 340.6 443.34C329.267 464.647 312.607 481.307 290.62 493.32C268.86 505.107 242.453 511 211.4 511H0.6ZM72.68 443.34H200.52C216.613 443.34 231.007 440.28 243.7 434.16C256.62 428.04 266.707 419.313 273.96 407.98C281.44 396.42 285.18 382.707 285.18 366.84C285.18 352.107 281.893 338.847 275.32 327.06C268.973 315.047 259.68 305.64 247.44 298.84C235.427 291.813 221.26 288.3 204.94 288.3H72.68V443.34ZM72.68 221.32H192.02C205.167 221.32 216.953 218.713 227.38 213.5C238.033 208.06 246.42 200.353 252.54 190.38C258.887 180.18 262.06 167.94 262.06 153.66C262.06 134.62 255.713 118.98 243.02 106.74C230.327 94.5 213.327 88.38 192.02 88.38H72.68V221.32ZM432.4 83.62V14.6H503.46V83.62H432.4ZM432.4 511V143.8H503.46V511H432.4ZM605.221 511L605.561 21.4H677.641V320.6L821.801 143.8H912.241L759.921 327.4L927.881 511H831.321L677.641 334.2V511H605.221ZM1065.86 521.2C1038.66 521.2 1015.88 516.213 997.523 506.24C979.163 496.04 965.223 482.667 955.703 466.12C946.409 449.347 941.763 430.987 941.763 411.04C941.763 392.453 945.049 376.133 951.623 362.08C958.196 348.027 967.943 336.127 980.863 326.38C993.783 316.407 1009.65 308.36 1028.46 302.24C1044.78 297.48 1063.26 293.287 1083.88 289.66C1104.51 286.033 1126.16 282.633 1148.82 279.46C1171.72 276.287 1194.38 273.113 1216.82 269.94L1190.98 284.22C1191.44 255.433 1185.32 234.127 1172.62 220.3C1160.16 206.247 1138.62 199.22 1108.02 199.22C1088.76 199.22 1071.08 203.753 1054.98 212.82C1038.89 221.66 1027.67 236.393 1021.32 257.02L955.023 236.62C964.089 205.113 981.316 180.067 1006.7 161.48C1032.32 142.893 1066.32 133.6 1108.7 133.6C1141.57 133.6 1170.13 139.267 1194.38 150.6C1218.86 161.707 1236.77 179.387 1248.1 203.64C1254 215.653 1257.62 228.347 1258.98 241.72C1260.34 255.093 1261.02 269.487 1261.02 284.9V511H1198.12V427.02L1210.36 437.9C1195.18 466.007 1175.8 486.973 1152.22 500.8C1128.88 514.4 1100.09 521.2 1065.86 521.2ZM1078.44 463.06C1098.62 463.06 1115.96 459.547 1130.46 452.52C1144.97 445.267 1156.64 436.087 1165.48 424.98C1174.32 413.873 1180.1 402.313 1182.82 390.3C1186.68 379.42 1188.83 367.18 1189.28 353.58C1189.96 339.98 1190.3 329.1 1190.3 320.94L1213.42 329.44C1190.98 332.84 1170.58 335.9 1152.22 338.62C1133.86 341.34 1117.2 344.06 1102.24 346.78C1087.51 349.273 1074.36 352.333 1062.8 355.96C1053.06 359.36 1044.33 363.44 1036.62 368.2C1029.14 372.96 1023.14 378.74 1018.6 385.54C1014.3 392.34 1012.14 400.613 1012.14 410.36C1012.14 419.88 1014.52 428.72 1019.28 436.88C1024.04 444.813 1031.3 451.16 1041.04 455.92C1050.79 460.68 1063.26 463.06 1078.44 463.06ZM1489.73 520.86C1445.08 520.86 1408.7 511 1380.59 491.28C1352.48 471.56 1335.26 443.793 1328.91 407.98L1401.67 396.76C1406.2 415.8 1416.63 430.873 1432.95 441.98C1449.5 452.86 1470.01 458.3 1494.49 458.3C1516.7 458.3 1534.04 453.767 1546.51 444.7C1559.2 435.633 1565.55 423.167 1565.55 407.3C1565.55 398.007 1563.28 390.527 1558.75 384.86C1554.44 378.967 1545.26 373.413 1531.21 368.2C1517.16 362.987 1495.74 356.527 1466.95 348.82C1435.44 340.66 1410.4 331.933 1391.81 322.64C1373.45 313.12 1360.3 302.127 1352.37 289.66C1344.66 276.967 1340.81 261.667 1340.81 243.76C1340.81 221.547 1346.7 202.167 1358.49 185.62C1370.28 169.073 1386.82 156.267 1408.13 147.2C1429.66 138.133 1454.82 133.6 1483.61 133.6C1511.72 133.6 1536.76 138.02 1558.75 146.86C1580.74 155.7 1598.53 168.28 1612.13 184.6C1625.73 200.693 1633.89 219.62 1636.61 241.38L1563.85 254.64C1561.36 236.96 1553.08 223.02 1539.03 212.82C1524.98 202.62 1506.73 197.067 1484.29 196.16C1462.76 195.253 1445.3 198.88 1431.93 207.04C1418.56 214.973 1411.87 225.967 1411.87 240.02C1411.87 248.18 1414.36 255.093 1419.35 260.76C1424.56 266.427 1434.54 271.867 1449.27 277.08C1464 282.293 1485.76 288.527 1514.55 295.78C1545.38 303.713 1569.86 312.553 1587.99 322.3C1606.12 331.82 1619.04 343.267 1626.75 356.64C1634.68 369.787 1638.65 385.767 1638.65 404.58C1638.65 440.847 1625.39 469.293 1598.87 489.92C1572.58 510.547 1536.2 520.86 1489.73 520.86ZM1971.6 511V330.46C1971.6 316.18 1970.35 301.56 1967.86 286.6C1965.59 271.413 1961.06 257.36 1954.26 244.44C1947.69 231.52 1938.28 221.093 1926.04 213.16C1914.03 205.227 1898.27 201.26 1878.78 201.26C1866.09 201.26 1854.07 203.413 1842.74 207.72C1831.41 211.8 1821.43 218.487 1812.82 227.78C1804.43 237.073 1797.75 249.313 1792.76 264.5C1788 279.687 1785.62 298.16 1785.62 319.92L1741.42 303.26C1741.42 269.94 1747.65 240.587 1760.12 215.2C1772.59 189.587 1790.49 169.64 1813.84 155.36C1837.19 141.08 1865.41 133.94 1898.5 133.94C1923.89 133.94 1945.19 138.02 1962.42 146.18C1979.65 154.34 1993.59 165.107 2004.24 178.48C2015.12 191.627 2023.39 206.02 2029.06 221.66C2034.73 237.3 2038.58 252.6 2040.62 267.56C2042.66 282.52 2043.68 295.667 2043.68 307V511H1971.6ZM1713.54 511V21.4H1777.12V285.58H1785.62V511H1713.54ZM2376.36 543.98C2338.96 543.98 2303.83 536.84 2270.96 522.56C2238.09 508.507 2209.19 489.127 2184.26 464.42C2159.55 439.487 2140.17 410.587 2126.12 377.72C2112.07 344.853 2105.04 309.72 2105.04 272.32C2105.04 234.693 2112.07 199.56 2126.12 166.92C2140.17 134.053 2159.55 105.153 2184.26 80.22C2209.19 55.2866 2238.09 35.7933 2270.96 21.74C2303.83 7.68665 2338.96 0.659984 2376.36 0.659984C2414.21 0.659984 2449.46 7.79998 2482.1 22.08C2514.97 36.1333 2543.75 55.6267 2568.46 80.56C2593.39 105.267 2612.89 134.053 2626.94 166.92C2640.99 199.56 2648.02 234.693 2648.02 272.32C2648.02 309.72 2640.99 344.853 2626.94 377.72C2612.89 410.587 2593.39 439.487 2568.46 464.42C2543.75 489.127 2514.97 508.507 2482.1 522.56C2449.46 536.84 2414.21 543.98 2376.36 543.98ZM2381.12 416.82C2359.13 416.82 2339.98 413.193 2323.66 405.94C2307.34 398.687 2292.83 387.353 2280.14 371.94C2268.35 356.98 2259.97 341.113 2254.98 324.34C2250.22 307.34 2247.84 289.887 2247.84 271.98C2248.07 253.167 2250.67 235.373 2255.66 218.6C2260.87 201.827 2269.03 186.527 2280.14 172.7C2292.61 157.513 2307.23 146.18 2324 138.7C2340.77 131.22 2360.72 127.48 2383.84 127.48C2396.53 127.48 2408.21 128.727 2418.86 131.22C2429.51 133.713 2440.39 138.473 2451.5 145.5C2463.51 152.527 2473.83 161.707 2482.44 173.04C2491.28 184.373 2497.51 197.52 2501.14 212.48L2445.72 227.78C2443.45 221.207 2440.28 214.973 2436.2 209.08C2432.12 203.187 2427.02 197.86 2420.9 193.1C2415.46 188.34 2409.23 184.94 2402.2 182.9C2395.4 180.86 2388.26 179.84 2380.78 179.84C2369.22 179.84 2358.68 182.22 2349.16 186.98C2339.87 191.513 2331.82 198.087 2325.02 206.7C2318.22 215.313 2313.57 225.4 2311.08 236.96C2308.59 248.52 2307.34 260.08 2307.34 271.64C2307.34 283.88 2308.7 295.667 2311.42 307C2314.37 318.333 2318.9 328.42 2325.02 337.26C2331.37 345.873 2339.3 352.447 2348.82 356.98C2358.34 361.513 2369.22 363.78 2381.46 363.78C2398.23 363.78 2411.83 359.7 2422.26 351.54C2427.7 347.007 2432.12 342.133 2435.52 336.92C2438.92 331.707 2441.98 325.813 2444.7 319.24L2501.14 332.16C2496.83 345.307 2490.83 357.207 2483.12 367.86C2475.64 378.287 2467.03 387.127 2457.28 394.38C2447.08 401.633 2435.97 407.187 2423.96 411.04C2411.95 414.893 2397.67 416.82 2381.12 416.82ZM2376.7 476.32C2404.81 476.32 2431.1 471.107 2455.58 460.68C2480.29 450.027 2501.93 435.407 2520.52 416.82C2539.33 398.007 2553.95 376.247 2564.38 351.54C2575.03 326.833 2580.36 300.313 2580.36 271.98C2580.36 243.873 2575.03 217.58 2564.38 193.1C2553.95 168.393 2539.33 146.747 2520.52 128.16C2501.93 109.347 2480.29 94.7266 2455.58 84.3C2431.1 73.6466 2404.81 68.32 2376.7 68.32C2348.37 68.32 2321.85 73.6466 2297.14 84.3C2272.43 94.7266 2250.67 109.347 2231.86 128.16C2213.27 146.747 2198.65 168.393 2188 193.1C2177.57 217.58 2172.36 243.873 2172.36 271.98C2172.36 300.313 2177.57 326.833 2188 351.54C2198.65 376.247 2213.27 398.007 2231.86 416.82C2250.67 435.407 2272.43 450.027 2297.14 460.68C2321.85 471.107 2348.37 476.32 2376.7 476.32Z" fill="url(#paint0_linear_2004_2)"/>
<defs>
<linearGradient id="paint0_linear_2004_2" x1="1311" y1="-214" x2="1311" y2="715" gradientUnits="userSpaceOnUse">
<stop stop-color="#F2EDE6"/>
<stop offset="1" stop-color="#1F1D1D"/>
</linearGradient>
</defs>
</svg>
